<svg width="400" height="400" viewBox="0 0 400 400" fill="none" xmlns="http://www.w3.org/2000/svg">
  <!-- Background -->
  <rect width="400" height="400" fill="#000000"/>
  
  <!-- Art Deco Fan Pattern -->
  <g opacity="0.3">
    <!-- Center Fans -->
    <path d="M200 50 Q250 150 200 250" stroke="#5d87a1" stroke-width="3" fill="none"/>
    <path d="M200 50 Q150 150 200 250" stroke="#5d87a1" stroke-width="3" fill="none"/>
    <path d="M200 50 Q280 150 200 250" stroke="#5d87a1" stroke-width="3" fill="none"/>
    <path d="M200 50 Q120 150 200 250" stroke="#5d87a1" stroke-width="3" fill="none"/>
    <path d="M200 50 Q300 150 200 250" stroke="#5d87a1" stroke-width="3" fill="none"/>
    <path d="M200 50 Q100 150 200 250" stroke="#5d87a1" stroke-width="3" fill="none"/>
    
    <!-- Leaf Patterns -->
    <path d="M50 100 Q100 150 50 200" stroke="#5d87a1" stroke-width="3" fill="none"/>
    <path d="M350 100 Q300 150 350 200" stroke="#5d87a1" stroke-width="3" fill="none"/>
    <path d="M50 300 Q100 250 50 200" stroke="#5d87a1" stroke-width="3" fill="none"/>
    <path d="M350 300 Q300 250 350 200" stroke="#5d87a1" stroke-width="3" fill="none"/>
    
    <!-- Gold Dots -->
    <circle cx="200" cy="50" r="4" fill="#ba9765"/>
    <circle cx="200" cy="80" r="3" fill="#ba9765"/>
    <circle cx="200" cy="110" r="3" fill="#ba9765"/>
    <circle cx="200" cy="140" r="3" fill="#ba9765"/>
    <circle cx="200" cy="170" r="3" fill="#ba9765"/>
    <circle cx="200" cy="200" r="4" fill="#ba9765"/>
    <circle cx="200" cy="230" r="3" fill="#ba9765"/>
    <circle cx="50" cy="100" r="3" fill="#ba9765"/>
    <circle cx="50" cy="150" r="3" fill="#ba9765"/>
    <circle cx="50" cy="200" r="3" fill="#ba9765"/>
    <circle cx="350" cy="100" r="3" fill="#ba9765"/>
    <circle cx="350" cy="150" r="3" fill="#ba9765"/>
    <circle cx="350" cy="200" r="3" fill="#ba9765"/>
  </g>
</svg> 