<svg width="500" height="500" viewBox="0 0 500 500" fill="none" xmlns="http://www.w3.org/2000/svg">
  <!-- Background square -->
  <rect width="500" height="500" fill="#000000"/>
  <!-- Gold border -->
  <rect x="20" y="20" width="460" height="460" stroke="#ba9765" stroke-width="3" fill="none"/>
  <!-- REEL text - fixed proportions -->
  <path d="M100 140 L100 330 M100 140 Q180 140 200 170 Q220 200 200 230 Q180 260 100 260 M100 230 L180 230 M220 140 L220 330 M260 140 L260 330 M290 140 Q370 140 370 190 Q370 230 290 260 Q370 290 370 330" stroke="#ba9765" stroke-width="4" fill="none"/>
  <!-- ROOM text - fixed proportions -->
  <path d="M100 360 Q160 360 180 380 Q200 400 180 420 Q160 440 100 440 M220 360 Q280 360 300 380 Q320 400 300 420 Q280 440 220 440 M320 360 Q380 360 400 380 Q420 400 400 420 Q380 440 320 440 M420 360 L420 440 M420 360 L440 440 M440 360 L460 440" stroke="#ba9765" stroke-width="4" fill="none"/>
</svg> 